A private detective is hired to find a missing stripper. A simple job turns complicated when everyone he questions ends up dead.

Director:
Tony Krantz
Writer:
Erik Jendresen
Stars:
Antonio Banderas, Thomas Kretschmann and William Fichtner 

Media info:


General
Complete name                    : E:\torrent2\The Big Bang 2011 BluRay rip.MKV. 1080p AVC AC3-5.1-ACB-Team\The Big Bang 2011 BluRay rip.MKV. 1080p AVC AC3-5.1-ACB-Team.mkv
Format                           : Matroska
File size                        : 8.53 GiB
Duration                         : 1h 41mn
Overall bit rate                 : 12.1 Mbps
Movie name                       : movie
Encoded date                     : UTC 2011-05-14 00:23:20
Writing application              : mkvmerge v3.2.0 ('Beginnings') built on Feb 12 2010 16:46:17
Writing library                  : libebml v0.7.9 + libmatroska v0.8.1

Video
ID                               : 1
Format                           : AVC
Format/Info                      : Advanced Video Codec
Format profile                   : High@L4.1
Format settings, CABAC           : Yes
Format settings, ReFrames        : 3 frames
Format settings, GOP             : M=4, N=16
Muxing mode                      : Container profile=Unknown@0.0
Codec ID                         : V_MPEG4/ISO/AVC
Duration                         : 1h 41mn
Bit rate mode                    : Variable
Bit rate                         : 11.4 Mbps
Maximum bit rate                 : 35.0 Mbps
Width                            : 1 920 pixels
Height                           : 1 080 pixels
Display aspect ratio             : 16:9
Frame rate                       : 23.976 fps
Color space                      : YUV
Chroma subsampling               : 4:2:0
Bit depth                        : 8 bits
Scan type                        : Progressive
Bits/(Pixel*Frame)               : 0.230
Stream size                      : 7.91 GiB (93%)
Writing library                  : x264 core 115 r1937 aa21558
Encoding settings                : cabac=1 / ref=1 / deblock=1:0:0 / analyse=0x3:0x3 / me=dia / subme=1 / psy=1 / psy_rd=0.00:0.00 / mixed_ref=0 / me_range=16 / chroma_me=1 / trellis=0 / 8x8dct=1 / cqm=0 / deadzone=21,11 / fast_pskip=1 / chroma_qp_offset=0 / threads=3 / sliced_threads=0 / slices=4 / nr=0 / decimate=1 / interlaced=0 / bluray_compat=1 / constrained_intra=0 / bframes=3 / b_pyramid=1 / b_adapt=1 / b_bias=0 / direct=1 / weightb=1 / open_gop=0 / weightp=1 / keyint=24 / keyint_min=1 / scenecut=40 / intra_refresh=0 / rc_lookahead=0 / rc=abr / mbtree=0 / bitrate=11448 / ratetol=1.0 / qcomp=0.60 / qpmin=0 / qpmax=69 / qpstep=4 / vbv_maxrate=35000 / vbv_bufsize=30000 / nal_hrd=vbr / ip_ratio=1.10 / pb_ratio=1.10 / aq=1:1.00

Audio
ID                               : 2
Format                           : AC-3
Format/Info                      : Audio Coding 3
Mode extension                   : CM (complete main)
Codec ID                         : A_AC3
Duration                         : 1h 41mn
Bit rate mode                    : Constant
Bit rate                         : 640 Kbps
Channel(s)                       : 6 channels
Channel positions                : Front: L C R, Side: L R, LFE
Sampling rate                    : 48.0 KHz
Bit depth                        : 16 bits
Stream size                      : 464 MiB (5%)
Language                         : English

Text #1
ID                               : 3
Format                           : VobSub
Muxing mode                      : zlib
Codec ID                         : S_VOBSUB
Codec ID/Info                    : The same subtitle format used on DVDs
Language                         : English

Text #2
ID                               : 4
Format                           : VobSub
Muxing mode                      : zlib
Codec ID                         : S_VOBSUB
Codec ID/Info                    : The same subtitle format used on DVDs
Language                         : Spanish

Text #3
ID                               : 5
Format                           : UTF-8
Codec ID                         : S_TEXT/UTF8
Codec ID/Info                    : UTF-8 Plain Text
Language                         : Dutch

Menu
00:00:00.000                     : en:00:00:00.000
00:03:33.087                     : en:00:03:33.087
00:09:35.783                     : en:00:09:35.783
00:21:20.112                     : en:00:21:20.112
00:29:57.629                     : en:00:29:57.629
00:37:32.208                     : en:00:37:32.208
00:49:07.778                     : en:00:49:07.778
01:00:21.909                     : en:01:00:21.909
01:09:29.790                     : en:01:09:29.790
01:20:02.881                     : en:01:20:02.881
01:28:43.151                     : en:01:28:43.151
01:37:09.073                     : en:01:37:09.073


